<svg width="252" height="64" viewBox="0 0 252 64" fill="none" xmlns="http://www.w3.org/2000/svg">
<rect x="0.5" width="251" height="64" rx="8" fill="#E60000"/>
<path fill-rule="evenodd" clip-rule="evenodd" d="M29.75 24.5948C29.75 22.931 31.5338 21.8762 32.9917 22.6781L46.4557 30.0833C47.9668 30.9144 47.9668 33.0856 46.4557 33.9167L32.9917 41.3219C31.5338 42.1238 29.75 41.069 29.75 39.4052V24.5948Z" fill="white"/>
<path d="M62.458 38.77C61.528 38.77 60.688 38.611 59.938 38.293C59.194 37.969 58.579 37.51 58.093 36.916C57.613 36.316 57.301 35.605 57.157 34.783L59.119 34.486C59.317 35.278 59.731 35.896 60.361 36.34C60.991 36.778 61.726 36.997 62.566 36.997C63.088 36.997 63.568 36.916 64.006 36.754C64.444 36.586 64.795 36.349 65.059 36.043C65.329 35.731 65.464 35.359 65.464 34.927C65.464 34.693 65.422 34.486 65.338 34.306C65.26 34.126 65.149 33.97 65.005 33.838C64.867 33.7 64.696 33.583 64.492 33.487C64.294 33.385 64.075 33.298 63.835 33.226L60.514 32.245C60.19 32.149 59.86 32.026 59.524 31.876C59.188 31.72 58.879 31.519 58.597 31.273C58.321 31.021 58.096 30.712 57.922 30.346C57.748 29.974 57.661 29.524 57.661 28.996C57.661 28.198 57.865 27.523 58.273 26.971C58.687 26.413 59.245 25.993 59.947 25.711C60.649 25.423 61.435 25.279 62.305 25.279C63.181 25.291 63.964 25.447 64.654 25.747C65.35 26.047 65.926 26.479 66.382 27.043C66.844 27.601 67.162 28.279 67.336 29.077L65.32 29.419C65.23 28.933 65.038 28.516 64.744 28.168C64.45 27.814 64.09 27.544 63.664 27.358C63.238 27.166 62.776 27.067 62.278 27.061C61.798 27.049 61.357 27.121 60.955 27.277C60.559 27.433 60.241 27.652 60.001 27.934C59.767 28.216 59.65 28.54 59.65 28.906C59.65 29.266 59.755 29.557 59.965 29.779C60.175 30.001 60.433 30.178 60.739 30.31C61.051 30.436 61.36 30.541 61.666 30.625L64.06 31.3C64.36 31.384 64.699 31.498 65.077 31.642C65.461 31.78 65.83 31.975 66.184 32.227C66.544 32.479 66.841 32.815 67.075 33.235C67.309 33.649 67.426 34.171 67.426 34.801C67.426 35.455 67.294 36.031 67.03 36.529C66.766 37.021 66.403 37.435 65.941 37.771C65.485 38.101 64.957 38.35 64.357 38.518C63.757 38.686 63.124 38.77 62.458 38.77ZM74.906 38.5C74.294 38.62 73.694 38.671 73.106 38.653C72.518 38.635 71.993 38.521 71.531 38.311C71.069 38.101 70.721 37.771 70.487 37.321C70.277 36.919 70.163 36.511 70.145 36.097C70.133 35.677 70.127 35.203 70.127 34.675V26.08H72.017V34.585C72.017 34.975 72.02 35.314 72.026 35.602C72.038 35.89 72.101 36.133 72.215 36.331C72.431 36.703 72.773 36.916 73.241 36.97C73.715 37.018 74.27 36.997 74.906 36.907V38.5ZM68.264 30.292V28.78H74.906V30.292H68.264ZM79.7003 38.77C78.9803 38.77 78.3773 38.638 77.8913 38.374C77.4053 38.104 77.0363 37.75 76.7843 37.312C76.5383 36.868 76.4153 36.382 76.4153 35.854C76.4153 35.362 76.5023 34.93 76.6763 34.558C76.8503 34.186 77.1083 33.871 77.4503 33.613C77.7923 33.349 78.2123 33.136 78.7103 32.974C79.1423 32.848 79.6313 32.737 80.1773 32.641C80.7233 32.545 81.2963 32.455 81.8963 32.371C82.5023 32.287 83.1023 32.203 83.6963 32.119L83.0123 32.497C83.0243 31.735 82.8623 31.171 82.5263 30.805C82.1963 30.433 81.6263 30.247 80.8163 30.247C80.3063 30.247 79.8383 30.367 79.4123 30.607C78.9863 30.841 78.6893 31.231 78.5213 31.777L76.7663 31.237C77.0063 30.403 77.4623 29.74 78.1343 29.248C78.8123 28.756 79.7123 28.51 80.8343 28.51C81.7043 28.51 82.4603 28.66 83.1023 28.96C83.7503 29.254 84.2243 29.722 84.5243 30.364C84.6803 30.682 84.7763 31.018 84.8123 31.372C84.8483 31.726 84.8663 32.107 84.8663 32.515V38.5H83.2013V36.277L83.5253 36.565C83.1233 37.309 82.6103 37.864 81.9863 38.23C81.3683 38.59 80.6063 38.77 79.7003 38.77ZM80.0333 37.231C80.5673 37.231 81.0263 37.138 81.4103 36.952C81.7943 36.76 82.1033 36.517 82.3373 36.223C82.5713 35.929 82.7243 35.623 82.7963 35.305C82.8983 35.017 82.9553 34.693 82.9673 34.333C82.9853 33.973 82.9943 33.685 82.9943 33.469L83.6063 33.694C83.0123 33.784 82.4723 33.865 81.9863 33.937C81.5003 34.009 81.0593 34.081 80.6633 34.153C80.2733 34.219 79.9253 34.3 79.6193 34.396C79.3613 34.486 79.1303 34.594 78.9263 34.72C78.7283 34.846 78.5693 34.999 78.4493 35.179C78.3353 35.359 78.2783 35.578 78.2783 35.836C78.2783 36.088 78.3413 36.322 78.4673 36.538C78.5933 36.748 78.7853 36.916 79.0433 37.042C79.3013 37.168 79.6313 37.231 80.0333 37.231ZM87.2034 38.5V28.78H88.8774V31.138L88.6434 30.832C88.7634 30.52 88.9194 30.235 89.1114 29.977C89.3034 29.713 89.5254 29.497 89.7774 29.329C90.0234 29.149 90.2964 29.011 90.5964 28.915C90.9024 28.813 91.2144 28.753 91.5324 28.735C91.8504 28.711 92.1564 28.726 92.4504 28.78V30.544C92.1324 30.46 91.7784 30.436 91.3884 30.472C91.0044 30.508 90.6504 30.631 90.3264 30.841C90.0204 31.039 89.7774 31.279 89.5974 31.561C89.4234 31.843 89.2974 32.158 89.2194 32.506C89.1414 32.848 89.1024 33.211 89.1024 33.595V38.5H87.2034ZM99.7263 38.5C99.1143 38.62 98.5143 38.671 97.9263 38.653C97.3383 38.635 96.8133 38.521 96.3513 38.311C95.8893 38.101 95.5413 37.771 95.3073 37.321C95.0973 36.919 94.9833 36.511 94.9653 36.097C94.9533 35.677 94.9473 35.203 94.9473 34.675V26.08H96.8373V34.585C96.8373 34.975 96.8403 35.314 96.8463 35.602C96.8583 35.89 96.9213 36.133 97.0353 36.331C97.2513 36.703 97.5933 36.916 98.0613 36.97C98.5353 37.018 99.0903 36.997 99.7263 36.907V38.5ZM93.0843 30.292V28.78H99.7263V30.292H93.0843ZM108.124 38.5L104.362 25.54H106.333L109.06 35.341L111.787 25.549L113.767 25.54L116.494 35.341L119.221 25.54H121.201L117.43 38.5H115.558L112.777 28.807L109.996 38.5H108.124ZM124.648 38.77C123.928 38.77 123.325 38.638 122.839 38.374C122.353 38.104 121.984 37.75 121.732 37.312C121.486 36.868 121.363 36.382 121.363 35.854C121.363 35.362 121.45 34.93 121.624 34.558C121.798 34.186 122.056 33.871 122.398 33.613C122.74 33.349 123.16 33.136 123.658 32.974C124.09 32.848 124.579 32.737 125.125 32.641C125.671 32.545 126.244 32.455 126.844 32.371C127.45 32.287 128.05 32.203 128.644 32.119L127.96 32.497C127.972 31.735 127.81 31.171 127.474 30.805C127.144 30.433 126.574 30.247 125.764 30.247C125.254 30.247 124.786 30.367 124.36 30.607C123.934 30.841 123.637 31.231 123.469 31.777L121.714 31.237C121.954 30.403 122.41 29.74 123.082 29.248C123.76 28.756 124.66 28.51 125.782 28.51C126.652 28.51 127.408 28.66 128.05 28.96C128.698 29.254 129.172 29.722 129.472 30.364C129.628 30.682 129.724 31.018 129.76 31.372C129.796 31.726 129.814 32.107 129.814 32.515V38.5H128.149V36.277L128.473 36.565C128.071 37.309 127.558 37.864 126.934 38.23C126.316 38.59 125.554 38.77 124.648 38.77ZM124.981 37.231C125.515 37.231 125.974 37.138 126.358 36.952C126.742 36.76 127.051 36.517 127.285 36.223C127.519 35.929 127.672 35.623 127.744 35.305C127.846 35.017 127.903 34.693 127.915 34.333C127.933 33.973 127.942 33.685 127.942 33.469L128.554 33.694C127.96 33.784 127.42 33.865 126.934 33.937C126.448 34.009 126.007 34.081 125.611 34.153C125.221 34.219 124.873 34.3 124.567 34.396C124.309 34.486 124.078 34.594 123.874 34.72C123.676 34.846 123.517 34.999 123.397 35.179C123.283 35.359 123.226 35.578 123.226 35.836C123.226 36.088 123.289 36.322 123.415 36.538C123.541 36.748 123.733 36.916 123.991 37.042C124.249 37.168 124.579 37.231 124.981 37.231ZM137.713 38.5C137.101 38.62 136.501 38.671 135.913 38.653C135.325 38.635 134.8 38.521 134.338 38.311C133.876 38.101 133.528 37.771 133.294 37.321C133.084 36.919 132.97 36.511 132.952 36.097C132.94 35.677 132.934 35.203 132.934 34.675V26.08H134.824V34.585C134.824 34.975 134.827 35.314 134.833 35.602C134.845 35.89 134.908 36.133 135.022 36.331C135.238 36.703 135.58 36.916 136.048 36.97C136.522 37.018 137.077 36.997 137.713 36.907V38.5ZM131.071 30.292V28.78H137.713V30.292H131.071ZM143.481 38.77C142.485 38.77 141.639 38.548 140.943 38.104C140.247 37.66 139.713 37.051 139.341 36.277C138.975 35.503 138.789 34.624 138.783 33.64C138.789 32.638 138.981 31.753 139.359 30.985C139.737 30.211 140.277 29.605 140.979 29.167C141.681 28.729 142.524 28.51 143.508 28.51C144.57 28.51 145.476 28.774 146.226 29.302C146.982 29.83 147.48 30.553 147.72 31.471L145.848 32.011C145.662 31.465 145.356 31.042 144.93 30.742C144.51 30.436 144.027 30.283 143.481 30.283C142.863 30.283 142.356 30.43 141.96 30.724C141.564 31.012 141.27 31.408 141.078 31.912C140.886 32.416 140.787 32.992 140.781 33.64C140.787 34.642 141.015 35.452 141.465 36.07C141.921 36.688 142.593 36.997 143.481 36.997C144.087 36.997 144.576 36.859 144.948 36.583C145.326 36.301 145.614 35.899 145.812 35.377L147.72 35.827C147.402 36.775 146.877 37.504 146.145 38.014C145.413 38.518 144.525 38.77 143.481 38.77ZM156.375 38.5V33.721C156.375 33.343 156.342 32.956 156.276 32.56C156.216 32.158 156.096 31.786 155.916 31.444C155.742 31.102 155.493 30.826 155.169 30.616C154.851 30.406 154.434 30.301 153.918 30.301C153.582 30.301 153.264 30.358 152.964 30.472C152.664 30.58 152.4 30.757 152.172 31.003C151.95 31.249 151.773 31.573 151.641 31.975C151.515 32.377 151.452 32.866 151.452 33.442L150.282 33.001C150.282 32.119 150.447 31.342 150.777 30.67C151.107 29.992 151.581 29.464 152.199 29.086C152.817 28.708 153.564 28.519 154.44 28.519C155.112 28.519 155.676 28.627 156.132 28.843C156.588 29.059 156.957 29.344 157.239 29.698C157.527 30.046 157.746 30.427 157.896 30.841C158.046 31.255 158.148 31.66 158.202 32.056C158.256 32.452 158.283 32.8 158.283 33.1V38.5H156.375ZM149.544 38.5V25.54H151.227V32.533H151.452V38.5H149.544ZM160.807 27.187V25.36H162.688V27.187H160.807ZM160.807 38.5V28.78H162.688V38.5H160.807ZM172.213 38.5V33.721C172.213 33.343 172.18 32.956 172.114 32.56C172.054 32.158 171.934 31.786 171.754 31.444C171.58 31.102 171.331 30.826 171.007 30.616C170.689 30.406 170.272 30.301 169.756 30.301C169.42 30.301 169.102 30.358 168.802 30.472C168.502 30.58 168.238 30.757 168.01 31.003C167.788 31.249 167.611 31.573 167.479 31.975C167.353 32.377 167.29 32.866 167.29 33.442L166.12 33.001C166.12 32.119 166.285 31.342 166.615 30.67C166.945 29.992 167.419 29.464 168.037 29.086C168.655 28.708 169.402 28.519 170.278 28.519C170.95 28.519 171.514 28.627 171.97 28.843C172.426 29.059 172.795 29.344 173.077 29.698C173.365 30.046 173.584 30.427 173.734 30.841C173.884 31.255 173.986 31.66 174.04 32.056C174.094 32.452 174.121 32.8 174.121 33.1V38.5H172.213ZM165.382 38.5V28.78H167.065V31.588H167.29V38.5H165.382ZM180.47 43.09C179.948 43.09 179.441 43.009 178.949 42.847C178.463 42.685 178.019 42.445 177.617 42.127C177.215 41.815 176.882 41.428 176.618 40.966L178.355 40.084C178.565 40.498 178.865 40.801 179.255 40.993C179.645 41.185 180.056 41.281 180.488 41.281C181.022 41.281 181.478 41.185 181.856 40.993C182.234 40.807 182.519 40.525 182.711 40.147C182.909 39.769 183.005 39.301 182.999 38.743V36.025H183.224V28.78H184.889V38.761C184.889 39.019 184.88 39.265 184.862 39.499C184.844 39.733 184.811 39.967 184.763 40.201C184.625 40.855 184.361 41.395 183.971 41.821C183.587 42.247 183.095 42.565 182.495 42.775C181.901 42.985 181.226 43.09 180.47 43.09ZM180.326 38.77C179.42 38.77 178.637 38.545 177.977 38.095C177.323 37.645 176.816 37.033 176.456 36.259C176.102 35.479 175.925 34.603 175.925 33.631C175.925 32.653 176.105 31.78 176.465 31.012C176.825 30.238 177.335 29.629 177.995 29.185C178.661 28.735 179.45 28.51 180.362 28.51C181.28 28.51 182.051 28.735 182.675 29.185C183.305 29.629 183.779 30.238 184.097 31.012C184.421 31.786 184.583 32.659 184.583 33.631C184.583 34.603 184.421 35.476 184.097 36.25C183.773 37.024 183.296 37.639 182.666 38.095C182.036 38.545 181.256 38.77 180.326 38.77ZM180.587 37.069C181.205 37.069 181.709 36.922 182.099 36.628C182.489 36.334 182.774 35.929 182.954 35.413C183.134 34.897 183.224 34.303 183.224 33.631C183.224 32.959 183.131 32.365 182.945 31.849C182.765 31.333 182.483 30.931 182.099 30.643C181.721 30.355 181.238 30.211 180.65 30.211C180.026 30.211 179.513 30.364 179.111 30.67C178.709 30.976 178.409 31.387 178.211 31.903C178.019 32.419 177.923 32.995 177.923 33.631C177.923 34.273 178.019 34.855 178.211 35.377C178.409 35.893 178.703 36.304 179.093 36.61C179.489 36.916 179.987 37.069 180.587 37.069ZM191.02 38.5V25.54H192.928L199.309 35.17V25.54H201.217V38.5H199.309L192.928 28.861V38.5H191.02ZM207.95 38.77C206.978 38.77 206.135 38.551 205.421 38.113C204.707 37.675 204.155 37.072 203.765 36.304C203.381 35.53 203.189 34.639 203.189 33.631C203.189 32.617 203.387 31.726 203.783 30.958C204.179 30.184 204.734 29.584 205.448 29.158C206.162 28.726 206.996 28.51 207.95 28.51C208.922 28.51 209.765 28.729 210.479 29.167C211.193 29.605 211.745 30.208 212.135 30.976C212.525 31.744 212.72 32.629 212.72 33.631C212.72 34.645 212.522 35.539 212.126 36.313C211.736 37.081 211.184 37.684 210.47 38.122C209.756 38.554 208.916 38.77 207.95 38.77ZM207.95 36.997C208.88 36.997 209.573 36.685 210.029 36.061C210.491 35.431 210.722 34.621 210.722 33.631C210.722 32.617 210.488 31.807 210.02 31.201C209.558 30.589 208.868 30.283 207.95 30.283C207.32 30.283 206.801 30.427 206.393 30.715C205.985 30.997 205.682 31.39 205.484 31.894C205.286 32.392 205.187 32.971 205.187 33.631C205.187 34.651 205.421 35.467 205.889 36.079C206.357 36.691 207.044 36.997 207.95 36.997ZM216.416 38.5L213.446 28.771L215.309 28.78L217.343 35.449L219.395 28.78H221.015L223.067 35.449L225.101 28.78H226.955L223.985 38.5H222.473L220.205 31.462L217.928 38.5H216.416Z" fill="white"/>
</svg>
