<svg width="48" height="48" viewBox="0 0 48 48" fill="none" xmlns="http://www.w3.org/2000/svg">
<rect x="0.5" y="0.5" width="47" height="47" rx="23.5" stroke="white" stroke-opacity="0.295743"/>
<path fill-rule="evenodd" clip-rule="evenodd" d="M30.9999 23.9999C30.9999 23.7238 30.7761 23.4999 30.4999 23.4999H18.7069L21.8539 20.3539C21.9804 20.2274 22.0298 20.0431 21.9835 19.8703C21.9372 19.6976 21.8023 19.5626 21.6295 19.5163C21.4567 19.47 21.2724 19.5194 21.1459 19.6459L17.1459 23.6459C17.0519 23.7397 16.999 23.8671 16.999 23.9999C16.999 24.1327 17.0519 24.2601 17.1459 24.3539L21.1459 28.3539C21.2724 28.4804 21.4567 28.5298 21.6295 28.4835C21.8023 28.4372 21.9372 28.3022 21.9835 28.1295C22.0298 27.9567 21.9804 27.7724 21.8539 27.6459L18.7069 24.4999H30.4999C30.7761 24.4999 30.9999 24.2761 30.9999 23.9999Z" fill="white"/>
</svg>
