<svg width="48" height="48" viewBox="0 0 48 48" fill="none" xmlns="http://www.w3.org/2000/svg">
<rect x="0.5" y="0.5" width="47" height="47" rx="23.5" stroke="white" stroke-opacity="0.295743"/>
<path fill-rule="evenodd" clip-rule="evenodd" d="M17 23.9999C17 23.7238 17.2239 23.4999 17.5 23.4999H29.293L26.146 20.3539C25.9505 20.1584 25.9505 19.8414 26.146 19.6459C26.3415 19.4504 26.6585 19.4504 26.854 19.6459L30.854 23.6459C30.948 23.7397 31.0009 23.8671 31.0009 23.9999C31.0009 24.1327 30.948 24.2601 30.854 24.3539L26.854 28.3539C26.6585 28.5494 26.3415 28.5494 26.146 28.3539C25.9505 28.1584 25.9505 27.8414 26.146 27.6459L29.293 24.4999H17.5C17.2239 24.4999 17 24.276 17 23.9999Z" fill="white"/>
</svg>
