<svg width="16" height="16" viewBox="0 0 16 16" fill="none" xmlns="http://www.w3.org/2000/svg"><path fill-rule="evenodd" clip-rule="evenodd" d="M8 0C5.82667 0 5.556.009333 4.70133.049333 1.79467.182667.181333 1.79467.048 4.70133.009333 5.556 0 5.828 0 8c0 2.1733.009333 2.4453.048 3.2987.133333 2.9053 1.74667 4.52 4.65333 4.6533C5.556 15.9907 5.82667 16 8 16c2.1733 0 2.4453-.0093 3.3-.048 2.9013-.1333 4.5213-1.7453 4.652-4.6533C15.9907 10.4453 16 10.1733 16 8c0-2.172-.0093-2.444-.048-3.29867C15.8213 1.79867 14.2067.181333 11.3.049333 10.4453.009333 10.1733 0 8 0Zm0 1.44267c2.136 0 2.3893.008 3.2333.04666 2.1694.09867 3.18 1.12667 3.28 3.27867.0374.844.0454 1.096.0454 3.232s-.008 2.3893-.0454 3.232c-.1 2.1507-1.1093 3.1813-3.28 3.28-.844.0373-1.096.0467-3.2333.0467-2.136 0-2.38933-.008-3.232-.0467-2.17333-.1-3.18-1.132-3.28-3.28-.03733-.8427-.04667-1.096-.04667-3.232s.00934-2.38933.04667-3.232c.09867-2.15333 1.10933-3.18133 3.28-3.28.84267-.03867 1.096-.04533 3.232-.04533ZM3.892 8c0-2.26933 1.84-4.108 4.108-4.108S12.108 5.732 12.108 8c0 2.2693-1.84 4.108-4.108 4.108S3.892 10.2693 3.892 8ZM8 10.6667c-1.47333 0-2.66667-1.19337-2.66667-2.6667 0-1.472 1.19334-2.66667 2.66667-2.66667 1.472 0 2.668 1.19334 2.668 2.66667 0 1.47333-1.196 2.6667-2.668 2.6667Zm3.3093-6.93603c0-.53067.4307-.96.96-.96.532 0 .9614.42933.9614.96 0 .53066-.4307.96-.9614.96-.5306 0-.96-.43067-.96-.96Z" fill="#fff"/></svg>