<svg width="16" height="13" viewBox="0 0 16 13" fill="none" xmlns="http://www.w3.org/2000/svg"><path d="M16 1.53953c-.588.26125-1.2213.4372-1.8853.51717.6786-.40654 1.1973-1.04901 1.444-1.815441-.6347.375884-1.3374.649134-2.0854.795751C12.876.398544 12.0213 0 11.0787 0 8.95867 0 7.40133 1.97673 7.88 4.02943 5.15333 3.89214 2.73333 2.58587 1.11467.601148.254667 2.07536.669333 4.00543 2.13067 4.98247 1.59333 4.96514 1.088 4.81718.645333 4.57193.609333 6.09146 1.7 7.51369 3.27867 7.83092c-.46134.1253-.968.15462-1.48267.05599.41733 1.3036 1.632 2.25129 3.06667 2.27799C3.48 11.2472 1.74267 11.7311 0 11.5258 1.45333 12.4575 3.17733 13 5.03067 13c6.09603 0 9.53863-5.14642 9.33063-9.76233C15.004 2.77648 15.56 2.19799 16 1.53953Z" fill="#fff"/></svg>